
<svg width="356px" height="159px" viewBox="0 0 356 159" version="1.1" xmlns="http://www.w3.org/2000/svg" xmlns:xlink="http://www.w3.org/1999/xlink">
    <!-- Generator: Sketch 44.1 (41455) - http://www.bohemiancoding.com/sketch -->
    <desc>Created with Sketch.</desc>
    <defs></defs>
    <g id="Page-1" stroke="none" stroke-width="1" fill="none" fill-rule="evenodd">
        <g id="Group" transform="translate(-58.000000, -156.000000)" fill="#FFFFFF">
            <path d="M256.311577,275.449992 C257.284532,265.787714 261.004002,255.448664 266.576507,245.541988 C276.010534,228.660045 291.15463,214.26074 306.050463,213.267685 C313.746643,212.771157 317.967129,215.005532 322.932406,221.708656 C328.642475,229.404836 336.090391,231.142683 334.600808,249.017682 C334.352544,251.003793 334.352544,252.74164 334.10428,254.727751 C335.593864,254.727751 337.083447,254.231224 339.069558,254.231224 C340.807405,254.231224 340.807405,255.472543 339.814349,256.713862 C338.076502,258.699973 335.593864,259.693029 333.111225,259.941293 C327.897683,281.043722 312.25706,306.118373 293.885533,312.32497 C284.948034,315.304136 272.53484,314.311081 262.604285,301.401359 C260.406957,298.504881 258.802312,295.317084 257.731751,291.910712 C250.212252,304.187441 236.162864,314.559344 223.130329,314.559344 C202.0279,314.559344 197.062623,299.166984 204.262275,277.568028 C212.454983,253.238168 234.302204,226.922198 229.833454,224.936087 C227.350815,223.943031 212.951511,230.89442 197.062623,248.272891 C182.415054,264.161778 171.491444,287.99511 160.816098,311.331914 C159.823042,313.566289 158.333459,314.559344 156.099084,312.32497 C151.133807,307.359692 149.644223,299.166984 153.616445,286.753791 C158.581723,271.113167 177.698041,236.604489 193.338665,213.515949 C195.076512,210.785046 197.062623,211.03331 198.552206,213.515949 C202.276164,219.722545 202.0279,228.163517 199.296998,237.101016 C210.468872,225.184351 227.350815,211.529838 235.543523,212.771157 C243.736231,214.012476 251.432411,226.177406 245.225814,239.087127 C240.012273,250.010738 227.847343,268.382264 222.137274,281.291986 C215.682413,295.69129 217.171996,307.359692 226.109496,306.863164 C235.730196,306.393862 247.125177,291.73032 256.311577,275.449992 Z M92.0470049,257.955182 C83.3577694,274.588861 74.6685339,293.208651 66.4758261,312.32497 C65.4827706,314.559344 63.9931874,315.055872 62.5036041,313.069761 C58.7796461,307.85622 56.7935351,300.656568 61.2622848,285.760735 C67.4688816,264.658306 110.170268,180.496854 125.314364,159.394424 C127.548739,156.415258 129.286586,156.663522 131.272697,159.890952 C134.500127,165.601021 135.741446,177.517687 125.562628,196.137477 C119.107767,207.805879 110.915059,222.453448 101.97756,239.087127 C134.500127,214.757268 169.257069,183.724284 192.842137,158.153105 C194.579984,156.166994 196.566095,156.415258 197.559151,158.649633 C199.048734,164.111438 198.80047,172.55241 189.862971,184.717339 C178.691096,199.861436 144.92721,230.149628 111.411587,253.734696 C119.356031,266.396153 126.059155,277.816291 129.038322,284.76768 C134.996655,298.918721 132.76228,307.607956 129.038322,312.32497 C127.548739,314.062817 125.810892,314.062817 124.569572,311.828442 C115.135545,293.456915 104.211935,275.581917 92.0470049,257.955182 Z M318.463656,250.010738 C314.491434,246.28678 311.760532,239.087127 313.001851,232.384003 C314.243171,225.184351 319.208448,223.694767 320.449767,231.639211 C321.194559,236.107961 320.449767,242.314558 318.463656,250.010738 Z M316.725809,256.713862 C314.739698,262.672195 311.760532,269.623584 308.036574,276.574972 C295.871644,299.415248 280.727548,308.104484 273.776159,302.394415 C267.321299,296.93261 271.045257,274.092333 281.472339,255.224279 C286.685881,245.790252 293.885533,237.597544 300.588658,231.887475 C300.836921,241.073238 306.795254,249.762474 312.008796,253.734696 C313.498379,254.976015 314.987962,255.969071 316.725809,256.713862 Z M368.364695,213.515949 C359.923723,213.515949 354.213654,209.79199 352.227543,207.061088 C349.744904,203.585394 351.234487,201.847547 354.958446,202.09581 C361.909834,202.344074 368.861222,201.847547 375.564347,201.102755 C383.260527,187.448242 390.211915,175.77984 394.432401,170.318035 C396.666776,167.090604 399.149415,167.338868 400.390734,170.318035 C403.121637,177.269423 403.121637,185.462131 397.163304,198.371852 C406.845595,198.123588 410.569553,202.592338 412.555664,205.819768 C414.293511,208.798935 413.300455,210.536782 409.576497,210.536782 C404.114692,209.79199 396.418512,210.536782 390.211915,211.529838 C380.529624,228.163517 366.378584,252.245113 356.944557,273.099278 C348.751849,291.222541 351.482751,306.614901 361.909834,307.111428 C373.081708,307.607956 387.232749,289.981221 396.418512,271.361431 C397.908095,268.382264 400.638998,267.885737 401.632054,271.361431 C402.873373,275.333653 401.632054,279.802402 399.149415,285.512471 C395.921984,292.712124 379.536569,314.559344 359.675459,313.814553 C343.290044,313.318025 330.132058,294.946499 342.048724,266.396153 C347.262266,253.98296 357.689348,233.128794 368.364695,213.515949 Z" id="Knot"></path>
        </g>
    </g>
</svg>
